<?xml version="1.0" standalone="no"?>
<!DOCTYPE svg PUBLIC "-//W3C//DTD SVG 20010904//EN"
 "http://www.w3.org/TR/2001/REC-SVG-20010904/DTD/svg10.dtd">
<svg version="1.0" xmlns="http://www.w3.org/2000/svg"
 width="400.000000pt" height="400.000000pt" viewBox="0 0 400.000000 400.000000"
 preserveAspectRatio="xMidYMid meet">
<metadata>
Created by potrace 1.16, written by Peter Selinger 2001-2019
</metadata>
<g transform="translate(0.000000,400.000000) scale(0.100000,-0.100000)"
fill="#000000" stroke="none">
<path d="M0 2000 l0 -2000 2000 0 2000 0 0 2000 0 2000 -2000 0 -2000 0 0
-2000z m2213 1565 c32 -16 75 -48 97 -71 37 -40 86 -122 77 -130 -2 -2 -70 19
-152 46 -82 28 -161 50 -175 50 -16 0 -37 -12 -55 -30 -37 -39 -95 -65 -188
-84 -93 -19 -147 -21 -147 -3 1 20 37 95 65 131 33 44 93 85 158 108 41 15 73
18 157 15 91 -3 113 -7 163 -32z m197 -384 c0 -15 -5 -54 -11 -86 -54 -291
-398 -410 -614 -214 -70 65 -115 153 -122 242 l-5 63 95 12 c118 15 241 53
293 90 l39 29 163 -55 c157 -52 162 -55 162 -81z m-1064 -288 c90 -46 129
-168 86 -265 -36 -83 -136 -132 -225 -111 l-45 10 -91 -91 -91 -91 0 -188 0
-187 1055 0 1055 0 0 188 0 187 -93 93 c-89 88 -95 92 -121 82 -151 -57 -314
117 -250 268 58 139 225 174 330 68 53 -53 71 -110 56 -181 l-10 -50 109 -110
109 -110 0 -217 0 -217 68 -3 67 -3 3 -102 3 -103 -1361 0 -1360 0 0 105 0
105 100 0 100 0 0 206 c0 133 4 213 11 227 6 12 56 65 110 118 l98 95 -6 71
c-5 61 -2 78 16 117 50 103 174 143 277 89z m784 -301 c0 -61 -2 -66 -46 -118
-26 -30 -49 -54 -53 -54 -3 0 -27 27 -53 59 -45 55 -48 62 -48 117 l0 59 100
0 100 0 0 -63z m-232 -230 l62 -76 0 -93 0 -93 -285 0 -285 0 0 95 c0 103 14
148 62 192 47 44 84 52 238 52 l145 0 63 -77z m668 58 c45 -22 89 -77 104
-131 6 -19 10 -69 10 -111 l0 -78 -290 0 -290 0 0 90 0 91 66 79 66 80 146 0
c126 0 151 -3 188 -20z m584 -1407 l0 -613 -1155 0 -1155 0 0 609 c0 397 3
610 10 613 6 2 525 3 1155 3 l1145 0 0 -612z"/>
<path d="M1273 1468 c-12 -13 -23 -44 -27 -72 -12 -94 -77 -160 -175 -175 -89
-14 -91 -19 -91 -208 0 -150 2 -165 20 -183 12 -12 34 -20 53 -20 96 -1 197
-103 197 -200 0 -17 9 -39 20 -50 20 -20 33 -20 728 -20 695 0 709 0 727 20
10 11 22 43 26 71 12 74 49 125 112 155 29 13 66 24 82 24 66 1 75 26 75 210
0 147 -1 152 -25 175 -15 16 -36 25 -55 25 -96 0 -179 81 -193 190 -11 86 44
80 -751 80 l-703 0 -20 -22z m1362 -170 c26 -73 120 -167 193 -193 l53 -19 -3
-74 -3 -74 -48 -18 c-91 -35 -184 -136 -203 -222 l-6 -28 -618 0 -618 0 -12
38 c-29 93 -117 184 -210 215 l-45 15 -3 70 -3 70 75 36 c87 42 143 100 177
182 l23 54 616 0 616 0 19 -52z"/>
</g>
</svg>
